/* XPM */
static char *_7c454d171b744e2de7ece4b2eed2639lohnkYVMf438YmmB_1[] = {
/* columns rows colors chars-per-pixel */
"35 49 32 1 ",
"  c None",
". c #DBDBE2",
"X c #8A8A8F",
"o c #B6B6B6",
"O c #53535A",
"+ c #EFC193",
"@ c #301C19",
"# c #BC8356",
"$ c #633724",
"% c #4CB528",
"& c #524238",
"* c #AB9A6E",
"= c #766A55",
"- c #8F4F34",
"; c #4B2F25",
": c #673D31",
"> c #C8BCB4",
", c #8B6B1C",
"< c #F1C146",
"1 c #5A440D",
"2 c #34343A",
"3 c #007DFF",
"4 c #F1F1F1",
"5 c #7F7873",
"6 c #9C604C",
"7 c black",
"8 c black",
"9 c black",
"0 c black",
"q c black",
"w c black",
"e c black",
/* pixels */
"                                   ",
"        .......X                   ",
"       .......XX                   ",
"      .......XX...                 ",
"     o......o......                ",
"    Oooo.........oXX               ",
"    OOoooo........oX               ",
"     Oooooo........X               ",
"     OoooXX++++....X               ",
"    @XX+XX++++++XO.X               ",
"    @XX+XX#$$++$XOOO               ",
"    @X@XXX+.$++.OO                 ",
"    @@@@@++.%++.O                  ",
"      @@@#++++++O                  ",
"       @$$#++++                    ",
"       &***###*&                   ",
"      &*****++#*&                  ",
"     &*******==**&                 ",
"    =****&*******&                 ",
"  &&==***&=******&                 ",
"  &***=*&@@=*****@                 ",
"  &&***&@@@&&&&&@@                 ",
"  &#++- @@@&&===@@@                ",
"  -+++- @@@&&===@@@                ",
"  -++#-  ;;:::>>:@@@               ",
"  -++-   ,,:::>::@@@               ",
" ,,++-  ,<,:::>>:&@@@              ",
",<<++++,<<,=======@@@              ",
" ,<++++1<<22======@@@              ",
" ,,+++1133XX222===@@@              ",
"   ---1133XXXXX222@                ",
"      ,<<,OOOXXXXX222              ",
"      ,<<,OOOOOOXXXooOOO           ",
"      ,<,,222OOOOOOoooooOOO        ",
"      ,,,::@@222OOOOOXooo44XXX     ",
"      @::::@@;;;222OOOOOX44444XX   ",
"      ;:::@ @;;;@  222OOOOOX4444XX ",
"     @;:::@ @;;;@     222OOOOOX44XX",
"     @:::@  @;;;@        222OOOX44X",
"     @:::@  @;;@            22222X ",
"     @::;@  ;;;@                   ",
"     @::@  @;;;@                   ",
"    @;::@  @;;@                    ",
"    @;::@  @;;@                    ",
"    @::;@  @;;@                    ",
"    @::@   @;;@                    ",
"   ;>>:@   @;55@                   ",
"  :6666:   @::::@                  ",
" :66666:   @:::::@                 "
};
