/* XPM */
static char *_62c61f32ba24e19bd2da22912af34cec5FjiExwjRBaFd8Q[] = {
/* columns rows colors chars-per-pixel */
"64 64 70 1 ",
"  c #8FE2E3",
". c #8FE3E3",
"X c #90E2E3",
"o c #92E2E3",
"O c #91E3E4",
"+ c #93E3E4",
"@ c #94E3E4",
"# c #96E3E4",
"$ c #97E3E4",
"% c #95E4E4",
"& c #96E4E5",
"* c #99E4E5",
"= c #9AE4E5",
"- c #9BE4E5",
"; c #9BE4E6",
": c #9CE5E6",
"> c #9DE5E6",
", c #A0E6E6",
"< c #A3E6E7",
"1 c #A3E7E8",
"2 c #A6E7E8",
"3 c #A7E7E8",
"4 c #A8E7E8",
"5 c #A9E7E8",
"6 c #A8E8E9",
"7 c #AAE8E8",
"8 c #ABE8E9",
"9 c #ADE8E9",
"0 c #ACE9EA",
"q c #AFE9EA",
"w c #AFEAEB",
"e c #B1E9EA",
"r c #B2E9EB",
"t c #B1EAEB",
"y c #B5EAEB",
"u c #B3EBEC",
"i c #B4EAEC",
"p c #B6ECED",
"a c #B8EBEC",
"s c #BBEDEE",
"d c #BFEEEF",
"f c #BFEFF0",
"g c #C2EFF0",
"h c #C5EFF0",
"j c #C1F0F1",
"k c #C4F1F2",
"l c #C8F1F2",
"z c #CCF3F3",
"x c #CFF2F3",
"c c #CFF3F4",
"v c #D3F3F4",
"b c #D3F3F5",
"n c #D4F3F4",
"m c #D2F4F4",
"M c #D3F4F5",
"N c #D4F4F4",
"B c #D5F4F4",
"V c #D6F4F5",
"C c #D8F4F5",
"Z c #D9F5F6",
"A c #DEF7F7",
"S c #DFF7F7",
"D c #DFF7F8",
"F c #E0F7F7",
"G c #E1F8F7",
"H c #E1F7F8",
"J c #E3F9F9",
"K c #E4F8F8",
"L c #E5F9F9",
"P c #E9FAFA",
/* pixels */
"LLLLLLLLLLLLLLLLLLLLLLLLLLLLLLLLLLLLSVZJZZLLLLLLLLLLLLLLLLLLLLLL",
"LLLLLLLLLLLLLLLLLLLLLLLLLLLLLLLLLLLFZnFLLLLLLLLLLLLLLLLLLLLLLLLL",
"LLLLLLLLLLLLLLLLLLLLLLLLLLLLLLLLLLLLLJLLLLLLLLLLLLLLLLLZHLLLLLLL",
"LLHLLLLJGLLLLLLLJSZJLLLLLLLLLLLLLLLLLLLLLLLLLLLLLLLLLLDMZLLLPLLL",
"LFVZLGVZSLLLLLLLSbbZFLLGLLLLLLLLLLLLLLLLLLLLLLLLLLJZSFbVnZFSZFPL",
"JVMVZVMbVJGLLLLZVVVMVLLKLLLLSSLLLLLLLLLLLLLLLLLLLLHnVnVnVnbnMSFZ",
"JVVnVVVVMVMSPclbVVVVZLFFPLZSVZLLLLLLLLLLLLLLLLLLLFZnVznZVVZFKLVS",
"SSJSJnMVnzkzVdjlkbVVnFZZSnZVSJJLLLLLLLLLLLSZLLLLLSZnclnnVJLLLLLG",
"LLLLLvkbkjjjlkllzvknnvCbbZLLLLLLLLLLLLLLLLvVSLLFVMVnkzVbZLLLLLLL",
"LLLJMggkhkjvZbnBnnvkvkkkKLLLLLLLLLLLLLSGLZbVbHSVMVVnlVVSLLLLLLLL",
"LLKVkljsjkhbVVVVZZZFnZZJLLLLLLLLLLLLLZVVVVVbVnnnbjlvvZLLLLLLLLLL",
"LGSVVvjdlnbMVnVSKLKLLLLLLLLLLLLLJLSZAMVVVVnzhkjlkjgkSSLLLLLLLLLL",
"LZmvnjdjcVVMMVDPLJLLLLLLLLLLJJLLZZVVzvVVVVBvdjkgjklFPLLLLLLLLLLL",
"ZvhkkjdlVMVVVSJDSVFLLLLLLLLPDVSZvnnBljjvVbgkklCznMLLLLLLLLPDSLLJ",
"lgjggjVVVVMVVVVMMMZVnSLZFPSZMMVVhvbvgsgdpjjkZvVVFPLLLLDHLFDnnFJL",
"gkklzmVMMVVVMVMVVVMVVbVnnZnnVVMjjjkgitstwkvvBnVMFSZZZZVVnbMVnnzb",
"lknnnZbVMVVVMVVnlnnVVVMVVMVnnVlgkjiytywdkbVVMVVVnVMVMMVMVVVVVVzl",
"ZlzVZnMVVVMVMVZkdvZVVVVVVVbzjgsdgppggzgjBbMVVVVVVVVMVVVVVMbvVVVV",
"VBglMcbVnbnVVnkgjlzknlznbfjkfwtgigklznVVnnVMVMnVnbjzVVVVMVbkVMVV",
"kkgjkjlljgknzkkkjjgkjjjkgkjjsygkgznCnnVnVVVVMVbVzkgkljjlMVvvVVVV",
"jdgjghjjgkgkjggkjjgfjgjggtygjglVznCbVVnbblznbnMkgjkgjkjjvZnnVvBk",
"dsdhjkgkkgkgjgkgkggydgsdddggkjlnvhkgkkjjjjgkjkkjkjgkggjjgzklVjkh",
"sdkkkgkggkgkkggghiytysigkhjfgkggjggkgjgkjhkgjjgghhjhiggdgggjkjkg",
"kjgkgkgkkgkjhkgdgiuisgkkjjjdighgjkjhkgkggkgkhkggjkkgtyssjfdyggsy",
"hkhjgkgjkdgfggdttytyttydyiutttygkhkgkkggdggjgkidgsaytytyiuttuyyg",
"jjhkggkgdsiutywttttttytyy5*wttttfgjhgpttiysgggttituttttttttyttgg",
"ksydadddtttyatttyittttu,t:  wwwytpkkyttttttyutttutytttttyttttgjk",
"dytttttt5tu,:t<:3,ytua, #*#X%* 353aiyyttttttuutytttttyttyttykddk",
"wtytttt, *##:+X:3+*ttt+# XX@@XXXXX9t:tttttyttyttttttt9tw,y<5dtty",
"ttttyty*35Xwa,Xti:X:, %X:w, X@X*9@XXX*,:tttytttytyty993#:59twttt",
"tttttytttytyttwyttwX ww,tyt*4*%wy4@:@@X$uyw3yyttyti5,yttiitttyty",
"tytytttyttttyttttty88ttttttty55pttty*X@X55 +5,ttwtw9tttyttyttttt",
"tytytytyytytytytttttytttueuewuuutttu5*t5*+X**+3*+*+5uutueuueueue",
"tttttttttttttttttytytytyeueuuuuwtttttttyw55iu* ++ +5uuueueeueueu",
"tytttyttttytttytytttttttueueeuu3,#:yiyttuup8#*#:1w50uuuieeuetuue",
"ttytttyttytttytttttytttteueuu9i1X##35,@4uw2++ *95iiuu5**ueeutui9",
"ttytttttttttytttytttut93uyteuu8*%XXXXX@X*%++++++ 19<3+X#-*witue3",
"ytttttyttytytttytyytu3X*tte#33#+#@@%*@$X +#+++++X+@X+ +%XX*iee#5",
"yeytutu#3yttttuuu99iu#X#9y,X++++++@@@@@@+++++++++#X+ %XX*Xo#** 9",
"5*ty9#* *ytyttuuu*#53XX+54@X++++++@@X$XX+++++++++X%X%++%#XoXX*5u",
"XX-4@#+%+3u1*iwu9#@XX@@X++ %++++++++++++++++++++++++++++@XX::wt,",
"@@X@XX%X++#+ 5ui-XX$@@+#++%+++++++++++++++++++++++++++++X#Xuip5X",
"@@@$+#X++++++%:-#@@@++++++++++++++++++++++++++++++++++++* *pwi##",
"X@XX+%X%++++X#+XXX@X++++++++++++++++++++++++++++++++++++X#:2@-@X",
"++++++++++++++#++++++++++++++++++++++++++++++++++++++++++%%8XX+%",
"++++++++++++++++++++++++++++++++++++++++++++++++++++++++++**X#%X",
"++++++++++++++++++++++++++++++++++++++++++++++++++++++++++++#X@X",
"+++++++++++++++++++++++++++++++++++++++++++++++++++++++++++++*X%",
"++++++++++++++++++++++++++++++++++++++++++++++++++++++++++++++++",
"++++++++++++++++++++++++++++++++++++++++++++++++++++++++++++++++",
"++++++++++++++++++++++++++++++++++++++++++++++++++++++++++++++++",
"++++++++++++++++++++++++++++++++++++++++++++++++++++++++++++++++",
"++++++++++++++++++++++++++++++++++++++++++++++++++++++++++++++++",
"++++++++++++++++++++++++++++++++++++++++++++++++++++++++++++++++",
"++++++++++++++++++++++++++++++++++++++++++++++++++++++++++++++++",
"++++++++++++++++++++++++++++++++++++++++++++++++++++++++++++++++",
"++++++++++++++++++++++++++++++++++++++++++++++++++++++++++++++++",
"++++++++++++++++++++++++++++++++++++++++++++++++++++++++++++++++",
"++++++++++++++++++++++++++++++++++++++++++++++++++++++++++++++++",
"++++++++++++++++++++++++++++++++++++++++++++++++++++++++++++++++",
"++++++++++++++++++++++++++++++++++++++++++++++++++++++++++++++++",
"++++++++++++++++++++++++++++++++++++++++++++++++++++++++++++++++",
"++++++++++++++++++++++++++++++++++++++++++++++++++++++++++++++++",
"++++++++++++++++++++++++++++++++++++++++++++++++++++++++++++++++"
};
