/* XPM */
static char *_eb52a5b24f748e7860b93c4dcd0401bRT57fD3Raoz7I0YM[] = {
/* columns rows colors chars-per-pixel */
"64 64 167 2 ",
"   c None",
".  c black",
"X  c #0E0000",
"o  c #120000",
"O  c #1B0E15",
"+  c #070716",
"@  c #23030A",
"#  c #290707",
"$  c #290E11",
"%  c #251516",
"&  c #2A1516",
"*  c #2D1916",
"=  c #2E1B18",
"-  c #311D1A",
";  c #301816",
":  c #36211D",
">  c #3A231E",
",  c #22222A",
"<  c #362427",
"1  c #2D2D34",
"2  c #282E3A",
"3  c #313136",
"4  c #34343A",
"5  c #3A393C",
"6  c #4D2F00",
"7  c #58210A",
"8  c #593E00",
"9  c #5D2A17",
"0  c #792000",
"q  c #65361F",
"w  c #472D24",
"e  c #4B2F25",
"r  c #422E2F",
"t  c #4D3026",
"y  c #4D3229",
"u  c #58342A",
"i  c #453331",
"p  c #4C3B34",
"a  c #453A3B",
"s  c #5D3935",
"d  c #603422",
"f  c #643A2E",
"g  c #653929",
"h  c #663C31",
"j  c #693E32",
"k  c #6D510B",
"l  c #7C5E14",
"z  c #4B433A",
"x  c #534339",
"c  c #5A4A3C",
"v  c #544539",
"b  c #63472D",
"n  c #705420",
"m  c #6B4132",
"M  c #6D493E",
"N  c #754638",
"B  c #6B5334",
"V  c #3B3B42",
"C  c #3E3E49",
"Z  c #344354",
"A  c #444349",
"S  c #4B4B53",
"D  c #53535A",
"F  c #58585F",
"G  c #714F45",
"H  c #645442",
"J  c #7D5E55",
"K  c #6F634F",
"L  c #7F6547",
"P  c #6E6252",
"I  c #726652",
"U  c #766A55",
"Y  c #796D57",
"T  c #5C5C64",
"R  c #616168",
"E  c #6D6D71",
"W  c #77777D",
"Q  c #7D7878",
"!  c #866500",
"~  c #8B6B1B",
"^  c #816217",
"/  c #916F1E",
"(  c #95731E",
")  c #8F4F35",
"_  c #955237",
"`  c #9D5736",
"'  c #92702B",
"]  c #9D7A25",
"[  c #93733A",
"{  c #9A5E4B",
"}  c #9E614D",
"|  c #A0634E",
" . c #AD7050",
".. c #B07453",
"X. c #B67E52",
"o. c #AB744A",
"O. c #827A75",
"+. c #55B634",
"@. c #E5B73D",
"#. c #E8B92D",
"$. c #F8C73A",
"%. c #BC8456",
"&. c #BB845A",
"*. c #9F8E66",
"=. c #A6956B",
"-. c #A8976C",
";. c #AB9A6E",
":. c #AE9D70",
">. c #B09E70",
",. c #EEBE44",
"<. c #E6B744",
"1. c #C99366",
"2. c #F7C649",
"3. c #F4C346",
"4. c #7D7D81",
"5. c #727881",
"6. c #007EFF",
"7. c #1D79F4",
"8. c #217AF4",
"9. c #807F84",
"0. c #7F8792",
"q. c #85858B",
"w. c #888588",
"e. c #86888F",
"r. c #8A8A8E",
"t. c #828287",
"y. c #9D938F",
"u. c #868994",
"i. c #8C8C91",
"p. c #929297",
"a. c #9C9C9F",
"s. c #9D9390",
"d. c #9E9EA3",
"f. c gray68",
"g. c #A4A4A5",
"h. c #BCAFA7",
"j. c #B4B4B4",
"k. c #BBBBBB",
"l. c #DBAF82",
"z. c #DDB284",
"x. c #E7B588",
"c. c #E9B78A",
"v. c #E8BB8E",
"b. c #EBBE92",
"n. c #C2B4AC",
"m. c #C5B9B1",
"M. c #EEC085",
"N. c #EFC193",
"B. c #EEC39A",
"V. c #F1C394",
"C. c #F3C69B",
"Z. c #F6C898",
"A. c #FACC9D",
"S. c #F6C688",
"D. c #CCC1B9",
"F. c #D2C7BE",
"G. c #BFBFC2",
"H. c #C8C8C9",
"J. c #CFCFD0",
"K. c #D8D8DE",
"L. c #D2D3D8",
"P. c #DBDBE2",
"I. c #D7D9E2",
"U. c #E3E3EB",
"Y. c #EEEEEE",
"T. c #E0E0E6",
"R. c #FBFBFB",
/* pixels */
"                                                                                                                                ",
"                                                                                                                                ",
"                                                                                                                                ",
"                                                                                                                                ",
"                                                                                                                                ",
"                                                                                                                                ",
"                                                                                                                                ",
"                                                        P.U.P.P.P.P.P.w.                                                        ",
"                                                      P.U.P.P.P.P.P.i.i.                                                        ",
"                                                    P.U.P.P.P.P.P.q.p.P.U.P.                                                    ",
"                                                  j.P.P.P.P.P.P.k.P.P.P.P.U.P.                                                  ",
"                                                V j.k.j.K.P.P.P.P.P.P.P.K.f.p.i.                                                ",
"                                                F S f.j.k.j.K.P.P.P.P.P.P.I.j.q.                                                ",
"                                                  Z h.k.j.j.j.P.P.P.P.P.P.P.P.4.                                                ",
"                                                  Z j.j.j.i.e.N.b.v.C.P.P.T.P.4.                                                ",
"                                                o w.0.b.y.e.b.V.V.N.V.b.5.4.P.W                                                 ",
"                                                X w.0.b.y.u.&.q g V.v.s r.S T D                                                 ",
"                                                . r.a 9.i.e.b.P.m N.B.I.A T                                                     ",
"                                                - - - > . v.V.K.+.V.C.I.5                                                       ",
"                                                    - : O X.N.N.N.N.V.b.Z                                                       ",
"                                                      = g u X.b.N.Z.N.                                                          ",
"                                                        - $ %.%.%.d                                                             ",
"                                                      i ;.>.-.V.N.%.;.p                                                         ",
"                                                    i -.;.;.;.;.N.b.%.-.i                                                       ",
"                                                  r -.:.;.;.;.;.;.U Y >.-.i                                                     ",
"                                                P ;.;.;.:.c =.;.;.;.;.:.;.r                                                     ",
"                                            x x I I =.;.;.c P ;.;.;.;.;.-.i                                                     ",
"                                            < =.:.:.Y -.H & * U ;.;.;.;.=..                                                     ",
"                                            c i *.:.:.H & ; = x x U Y I $ -                                                     ",
"                                            5 o.x.A. .  = - = x U U Y I $ : -                                                   ",
"                                            0 c.V.A. .    e t h g M D.n.7 < -                                                   ",
"                                            0 x.A.1.`     t t h g G m.9 h = -                                                   ",
"                                            0 x.A...      ~ ~ h g M D.n.9 x = -                                                 ",
"                                          ' ! l.A...    ^ 3.( U U U U U U P @ : -                                               ",
"                                        k <.$.M.C.N.V.[ @.2.( U U U U U Y K @ < -                                               ",
"                                          n #.S.N.N.A.B @.2.x 2 U U U U Y K @ : -                                               ",
"                                          ' ! z.V.Z.L 6 8.6.u.r.4 3 4 x x p * : -                                               ",
"                                              ) _ _ b 8 7.6.u.r.i.r.w.1 4 4 ;                                                   ",
"                                                    l ,.2.( D D D i.r.r.i.t., 5 4                                               ",
"                                                    l ,.2.( S D D D D T i.w.p.G.g.C T D                                         ",
"                                                    l 3.] ~ 5 3 4 D D D D S E k.j.j.k.a.V R D                                   ",
"                                                    ~ / ~ m j - = 4 4 5 D D D D T a.k.f.J.R.H.W d.                              ",
"                                                    & h f j :   = t t w 4 3 V D D D D D k.R.Y.Y.R.H.e.                          ",
"                                                  = w f h j -   = t w t =     V 3 C D D D D T H.R.U.R.G.i.                      ",
"                                                  % h j j :     - t e e =           V 3 A D D D D T J.R.j.i.                    ",
"                                                  % h j j :     - e e =                   V 3 A D D R L.R.G.                    ",
"                                                  % h j t -     e e e =                         5 4 5 + q.                      ",
"                                                  & h m >     - t e e =                                                         ",
"                                                - w f j >     - t t =                                                           ",
"                                                = e h m :     - e t ;                                                           ",
"                                                % f j y :     - e e -                                                           ",
"                                                % h m >       - e e =                                                           ",
"                                              o h.F.J #       ; y O.Q #                                                         ",
"                                            u { | { | N       - h h m f =                                                       ",
"                                          u { } { { | N       - j h f m h &                                                     ",
"                                                                                                                                ",
"                                                                                                                                ",
"                                                                                                                                ",
"                                                                                                                                ",
"                                                                                                                                ",
"                                                                                                                                ",
"                                                                                                                                ",
"                                                                                                                                ",
"                                                                                                                                "
};
