/* XPM */
static char *_e15881bb65147b28060cbbfe31c2b1fb4PuJX4VI70z8zUL[] = {
/* columns rows colors chars-per-pixel */
"64 64 210 2 ",
"   c None",
".  c #010000",
"X  c #0D0000",
"o  c #140003",
"O  c #1C0106",
"+  c #1B0208",
"@  c #10090F",
"#  c #040A13",
"$  c #090E14",
"%  c #000211",
"&  c #180C13",
"*  c #1D1316",
"=  c #1D1718",
"-  c #141015",
";  c #220102",
":  c #2C0000",
">  c #260D0D",
",  c #2F0D0C",
"<  c #330303",
"1  c #3B0202",
"2  c #3C0B06",
"3  c #3F0E08",
"4  c #3D120B",
"5  c #250F13",
"6  c #251315",
"7  c #2A1516",
"8  c #261917",
"9  c #2C1917",
"0  c #251918",
"q  c #2D1B19",
"w  c #341412",
"e  c #341B16",
"r  c #3C1B15",
"t  c #311D1A",
"y  c #3A1E19",
"u  c #3A1711",
"i  c #2F241B",
"p  c #35211B",
"a  c #3A241D",
"s  c #342A1C",
"d  c #3D2B1D",
"f  c #3D2620",
"g  c #3F2A20",
"h  c #460402",
"j  c #530000",
"k  c #44190F",
"l  c #4A1B0E",
"z  c #4A1509",
"x  c #5E1800",
"c  c #5B1F0A",
"v  c #441B12",
"b  c #491C11",
"n  c #441F18",
"m  c #501D14",
"M  c #5F2008",
"N  c #4E2115",
"B  c #43241C",
"V  c #4A261C",
"C  c #422D1E",
"Z  c #4D2B1D",
"A  c #522315",
"S  c #52261A",
"D  c #592618",
"F  c #542C1D",
"G  c #5C2C1D",
"H  c #502917",
"J  c #43301F",
"K  c #49311D",
"L  c #622209",
"P  c #612005",
"I  c #622E1D",
"U  c #662914",
"Y  c #64301F",
"T  c #69301D",
"R  c #422C22",
"E  c #4D2C21",
"W  c #522F22",
"Q  c #5E2F20",
"!  c #453221",
"~  c #4A3524",
"^  c #4C3927",
"/  c #46332B",
"(  c #4A362D",
")  c #4F3928",
"_  c #4E3A2B",
"`  c #543524",
"'  c #5D3323",
"]  c #513A26",
"[  c #5E3927",
"{  c #513B29",
"}  c #553E2B",
"|  c #5C3C29",
" . c #4D3F34",
".. c #533D34",
"X. c #643321",
"o. c #683321",
"O. c #6B3523",
"+. c #633B26",
"@. c #6D3825",
"#. c #643B2A",
"$. c #6B3D2B",
"%. c #733724",
"&. c #723B26",
"*. c #743E28",
"=. c #57402D",
"-. c #57402C",
";. c #5A432E",
":. c #59422D",
">. c #5B442F",
",. c #59452F",
"<. c #5C442F",
"1. c #5B432E",
"2. c #544234",
"3. c #5F4731",
"4. c #5D4530",
"5. c #5C4630",
"6. c #5E4832",
"7. c #5E493D",
"8. c #55423A",
"9. c #61432D",
"0. c #6A412C",
"q. c #75432D",
"w. c #7A442D",
"e. c #794329",
"r. c #614731",
"t. c #634131",
"y. c #614832",
"u. c #624933",
"i. c #634A33",
"p. c #614932",
"a. c #634B34",
"s. c #624B3D",
"d. c #6F4D3E",
"f. c #6A4433",
"g. c #7C4730",
"h. c #764B35",
"j. c #7C4A31",
"k. c #794E3C",
"l. c #704130",
"z. c #5F4E41",
"x. c #634E42",
"c. c #6C4E41",
"v. c #714E41",
"b. c #665244",
"n. c #6C5343",
"m. c #67554B",
"M. c #69564C",
"N. c #6D594D",
"B. c #7D5443",
"V. c #715B4D",
"C. c #745A47",
"Z. c #6D5A50",
"A. c #725E53",
"S. c #79604A",
"D. c #796457",
"F. c #854D33",
"G. c #884F33",
"H. c #855035",
"J. c #895136",
"K. c #8D5539",
"L. c #8E583A",
"P. c #905639",
"I. c #925B3C",
"U. c #985E3E",
"Y. c #854525",
"T. c #98603F",
"R. c #905E45",
"E. c #8A5B46",
"W. c #87604D",
"Q. c #976040",
"!. c #9B6442",
"~. c #9F6945",
"^. c #91644C",
"/. c #8C6855",
"(. c #8A6F5D",
"). c #926F5C",
"_. c #936A54",
"`. c #93715C",
"'. c #A16A46",
"]. c #A56E49",
"[. c #A06744",
"{. c #A7704A",
"}. c #AB744D",
"|. c #AF784F",
" X c #B0784F",
".X c #A1755B",
"XX c #B17950",
"oX c #8D7563",
"OX c #8F796A",
"+X c #947965",
"@X c #997B66",
"#X c #A27D65",
"$X c #9F846F",
"%X c #A3836D",
"&X c #A58770",
"*X c #A68A74",
"=X c #AA8B74",
"-X c #A98E7C",
";X c #AF927B",
":X c #B1937B",
">X c #B59A87",
",X c #B19784",
"<X c #BCA08C",
"1X c #C3A48E",
"2X c #C3A691",
"3X c #C7AB96",
"4X c #C9AC96",
"5X c #D3B59F",
"6X c #D8B9A2",
"7X c #D7B8A1",
/* pixels */
"                                                                                                                                ",
"                                                                                                                                ",
"                                            t t 7 6     t 7 t q t t 6 6 q t                                                     ",
"                                            t a R a     t a p t t p a R a t                                                     ",
"                                            6 R } { a & 7 y d d 9 a { } R 9                                                     ",
"                                            6 R 4.r.~ t t p J C a R <.<.R 6                                                     ",
"                            t q 7 6 5 6 t q 6 R 2.p.1.) R d d ! ^ 1.y.2.R 6 7 q 7 q t t                                         ",
"                            q a a a a a t t 9 d | a.p.4.) d d ~ <.p.a.| d q t p p p y t                                         ",
"                            7 R { 2.| ) p 7 p ! 1.p.i.1.~ d d ~ <.p.a.1.! a d d d d a t                                         ",
"                            6 R 1.a.a.1.R t d ~ :.p.p.1.^ d d ~ 1.r.r.1.~ C J J J d p q                                         ",
"                            q f R { 9.p.} ) d ~ 1.p.6.3.-.^ J ~ 1.a.p.4.~ d d d d a t                                           ",
"                            t t 6 d -.p.p.<.~ ! 1.p.3.3.i.,.K ~ 1.p.r.1.~ C J C a q                                             ",
"                              9 6 p ~ } 6.9.-.} <.6.p.p.a.<.! ! 2.r.-.~ C J } ^ a 6 6   t                                       ",
"                                9 a d ~ :.p.p.p.3.3.6.9.6.:.! ~ <.<.~ d d ~ 5.1.g 9 t t y q                                     ",
"                              p a d d ~ <.a.p.i.i.:.} ^ _ ^ ! J ^ ^ C J ^ 1.p.1.a q ~ { g 0                                     ",
"                            9 a C J d ~ 1.p.6.6.i.:.~ d C J d ! C C d ~ <.p.p.1.a a 2.9.R 7                                     ",
"                            q f a d a d ~ { { -.6.<.` S F F W F F K d g :.a.a.:.) { r.1.C 7 9       q                           ",
"                            t y t q q t q t d ~ 5.t.+.o.O.O.o.o.O.' K ! :.p.6.p.6.4.p.} a 6 t q t t t t                         ",
"                              0 q q 0 6 & 6 q C | 0.w.w.w.e.e.w.e.e.$.+.#.| [ | r.a.p.1.R p q p d a f q                         ",
"                                t t q 0 8 9 8 B G &.F.K.J.J.F.F.G.F.J.F.@.I o.+.9.6.p.1.~ d p q d g a q                         ",
"                              Q t a F Y X.F t 7 b X.F.K.J.K.U.!.!.!.!.Q.L.J.L.j.0.| 4.5.^ d s d R C a 7                         ",
"                            O.Q e C e.G.H.e.V # * W j.K.F.L.~.}.{.{.{.{.{.{.}.!.q.Q <.2.~ d J C J C a q                         ",
"                            O.%.b t.^..X`.^.h.V * B w.P.I.!.{.|. X}.}. X}.|.|.{.I.j.0.] ! d d ! ! d p q t                       ",
"                            o.%.c B.%X;X;X%XQ.&.a a q.I.].}.}.}.}.{.}.}.}.}.}.}.}.!.e.D J s d J J d p 9 q t                     ",
"                            O.%.U j.).&X;X*X^.e.' +.w.I.{.|.}.}.}.{.}.{.}.}.{.}. X{.I.w.0.` K d J d a p a q                     ",
"                            O.&.%.O.@.W.*X*XS.9.j.H.H.L.{.}.{.}.}.}.}.}.}.}.}.}.}.}.{.~.K.q.K i d J J d a q                     ",
"                            Q X.' D j #.(.oXs.9.F.P.H.I.].}.}.}.}.}.}.}.}.}.}.}.}.}.|.}.~.L.0.` ! d ! C p q                     ",
"    t 7 . X q 5 . . 5 p     y B a y y f / 2.,.i.F.J.F.I.].|.}.}.{.}.}.{.{.}.}.{.}.{.}.}.{.~.I.q.~ i C d p 7 q t                 ",
"    > ( b.x.f ( D.D...+     0 0 6 = = 6 2 H 9.h.H.J.F.L.!.].{.}.}.}.}.}.}.}.{.}.}.{.}.}. X{.I.F.0.^ K d a p a t                 ",
"    . s.@X+X/ x.>X>XN.. > q 0 0 * - % B 0.F.F.J.J.J.J.J.K.Q.{.|.}.{.}.}.}.}.}.}.}.}.}.}. X].I.F.H.q.^ s C d p q                 ",
"    . b.=X*X( M.4X4XA.. > y y E E E E #.F.P.K.J.J.J.J.J.F.K.!.{.{.|.}.{.}.{.{.}.{.}.}.}.{.!.L.J.K.F.+.C J C a q                 ",
"t 5 . x.*X&X_ m.2X2Xb.. . a S X.q.F.j.j.J.J.J.J.J.J.J.J.J.J.K.T.{.|.}.}.}.}.}.}.}.}.|.{.T.K.J.J.K.F.@.S ! d a q                 ",
"t t > s.@X+XR m.2X3XOX8.R l O.w.J.P.K.K.J.J.F.K.J.J.J.J.J.J.F.K.~.{.{.}.}.{.{.}.}.}.{.~.K.F.F.J.K.F.w.O.~ f p q                 ",
"9 d ] a.S.d.O N.>X5X3X-Xv.j e.J.J.J.J.J.G.F.F.F.F.F.F.J.J.J.F.J.K.Q.{.|.|.|.|.|.}.{.Q.P.J.F.J.J.J.J.G.q.E 0 t q                 ",
"7 d -.1.-.K . N.<X6X7X1X).*.F.J.J.J.J.J.L.P.I.P.I.K.K.J.J.J.J.F.F.K.~.{.].].].].{.[.K.F.J.J.J.J.G.K.K.j.E - q t                 ",
"9 t d ~ -.] . A.3X6X1X:X&X`.L.Y.F.J.F.K.!.].'.'.'.~.K.F.J.J.J.J.F.K.I.I.I.I.R.I.R.P.J.J.J.J.J.J.J.K.K.j.E $ t q                 ",
"t 9 5 d 2.-.o n.,X1X:X=X:X=X_.K.J.K.J.R.{. X}.|.|.].I.F.J.J.J.J.J.G.F.F.G.F.F.G.F.J.J.J.F.J.K.F.J.K.K.g.W 7 y q                 ",
"t 9 6 g 5.5.p / Z.OX=X:X:X:X=X#XR.G.!.{.}.}.}.}.}.].I.F.J.J.J.J.K.K.K.F.G.J.J.J.F.F.J.J.K.K.F.K.J.G.K.g.@.F y 0                 ",
"q q 0 R | -.R o . ( oX=X%X&X*X#XR.G.]. X}.{.}.}.}.].I.F.F.J.J.J.F.F.F.J.J.J.J.J.J.J.K.F.J.J.K.F.J.J.K.F.*.Q V 0                 ",
"y y t y ~ R a 5 . a x.V.V.N.A.n.*.G.{.XX X X X XXX{.I.F.J.J.J.F.q.w.F.K.J.J.J.J.J.J.J.J.J.J.G.K.J.J.J.F.&.Q B 0 q               ",
"q q t q 7 q t t t 9 O X o o . , m g.!.}.{.].].].{.~.L.F.J.J.K.j.O.O.F.K.J.J.J.K.F.K.J.J.K.F.K.F.J.J.K.F.&.G B 7 p t             ",
"          7 q t t 9 > + + + o > r W q.k.h.h.j.j.h.j.H.J.J.J.J.F.O.O.F.K.J.J.J.G.F.F.F.F.F.K.F.K.G.F.K.F.*.Q N r y q             ",
"            t y t t t t 9 t t t q q 4 h 2 z 4 2 < D j.K.J.J.K.F.&.@.F.F.J.J.J.J.K.K.K.K.K.F.J.F.K.J.G.F.*.I m v y q             ",
"            0 f t y r v r v v r v u k 1 2 2 < 2 z o.F.K.J.J.J.F.g.F.F.K.J.G.G.K.Q.[.'.Q.K.F.G.K.K.F.F.&.Q A b v y 0 t           ",
"            t t q y b l b b l k l l l k k b k N I &.F.K.J.J.J.J.K.F.K.F.J.J.G.I.].}.|.].I.G.J.J.K.F.&.G b k b v y q p t         ",
"                  t y B y v B B a r y r k N S Q o.@.&.j.H.K.J.K.K.K.w.g.F.K.R.'.{.|.XX{.'.Q.I.F.g.&.Q b b k b v v y t 7 t       ",
"                    q t t t t q t 9 9 t r N Y @.o.o.o.&.F.J.J.J.K.F.O.O.g.I.]. X}.{.}.}.}.].I.g.%.G m v b b b v v v r t p t     ",
"                      q q     q q t i u z M T @.O.o.Y O.e.w.$.$.#.#.Y %.F.I.].}.}.}.}.}.XX].K.O.I A b k k b b b b m E E f q     ",
"                                t t 0 B G O.o.o.O.o.o.O.O.X.B 8 0 n Q &.g.I.].}.}.}.}.}.}.~.F.D b v b b l b b b k A Y X.B 0     ",
"                              q t 9 + ../._.h.U U U o.o.G B 9 - $ y I %.&.K.]. X}.}.}.{.].I.F.O.A 4 k b v b b v r V O.O.V 0     ",
"                            t y t 7 . z.$X&XB.P I o.O.X.B q q q 0 R I o.I g.'.|. X}.}.].I.F.J.j.G 4 k b b b l v t B Y X.B 0     ",
"                            0 f t q O ..(.(.l.#./._.f.b t 0 t t q y E Q A O.K.!.!.'.~.T.K.F.K.F.X.A b k b b n r 6 V X.X.B 0 0   ",
"                            t p t t q a E A 1 d.&X&Xx.X 9 t t t t y t y v A o.*.J.I.K.K.J.J.K.F.*.G N k l b a 9     O.o.B 0 0 t ",
"                              t t t p , ; : ; c.=X=Xx.. 6 t t t t 7 0 q e r b F X.q.F.G.J.J.F.w.*.Y A k v y t       O.%.Q B a t ",
"                                                                    q p y t t t q ` j.P.K.F.e.O.O.Y A r y q         O.*.O.' B 0 ",
"                                                                      t q q q 6 # a #.g.h.&.I D G D N k y y           O.X.' V p ",
"                                                                        t y q q q p f B V A N N b N b b b b             ! ^ ~ J ",
"                                                                        q t t t t q = 5 w 4 4 v N A A A A v             d g J J ",
"                                                                    t q q t q t q q q y y t q B Q X.O.G A v t q                 ",
"                                                                    q f t t t q p t q q q 0 @ y Y @.%.Y z 2 y q                 ",
"                                                                t t t t t t q p t q         . < G @.@.I h < w i                 ",
"                                                                q p t q q t t q p t         x.n.$.T T $.d.s.E 5                 ",
"                                                                t p t t t q q t p t     . 7.@X@Xk.L L k.@X+X7..                 ",
"                                                                q p t t q t t t t t     . n.=X=XB.x x B.=X*Xb..                 "
};
