/* XPM */
static char *_5a4d09d6fc24d6280d0c96c82bcde89dSphJSkgyA6y91m0[] = {
/* columns rows colors chars-per-pixel */
"192 32 11 1 ",
"  c None",
". c #301C19",
"X c #481C11",
"o c #422F1F",
"O c #693422",
"+ c #5F4731",
"@ c #895136",
"# c #AA734C",
"$ c #AB8D76",
"% c #CFB19B",
"& c gray89",
/* pixels */
"                                                                                                                                                                                                ",
"                                                                                                                                                                                                ",
"                 .. .....                                        && &&&&&                                        .. .....                                        && &&&&&                       ",
"                 .+..o.+.                                        &&&&&&&&                                        .+..o.+.                                        &&&&&&&&                       ",
"             .....++oo++....                                 &&&&&&&&&&&&&&&                                 .....++oo++....                                 &&&&&&&&&&&&&&&                    ",
"             .++.o++oo++ooo.                                 &&&&&&&&&&&&&&&                                 .++.o++oo++ooo.                                 &&&&&&&&&&&&&&&                    ",
"             ..++o+++o++oo.                                  &&&&&&&&&&&&&&                                  ..++o+++o++oo.                                  &&&&&&&&&&&&&&                     ",
"              .o+++++o+oo+...                                 &&&&&&&&&&&&&&&                                 .o+++++o+oo+...                                 &&&&&&&&&&&&&&&                   ",
"             .oo+++ooooo++.+.                                &&&&&&&&&&&&&&&&                                .oo+++ooooo++.+.                                &&&&&&&&&&&&&&&&                   ",
"             ....o+OOOOo++++....                             &&&&&&&&&&&&&&&&&&&                             ....o+OOOOo++++....                             &&&&&&&&&&&&&&&&&&&                ",
"              ....O@@@@@OO++o.o.                              &&&&&&&&&&&&&&&&&&                              ....O@@@@@OO++o.o.                              &&&&&&&&&&&&&&&&&&                ",
"             O.@@..@@#####O+ooo.                             &&&&&&&&&&&&&&&&&&&                             O.@@..@@#####O+ooo.                             &&&&&&&&&&&&&&&&&&&                ",
"             OO$$@.@#######Oooo..                            &&&&&&&&&&&&&&&&&&&&                            OO$$@.@#######Oooo..                            &&&&&&&&&&&&&&&&&&&&               ",
"             OOO$+@@########@ooo.                            &&&&&&&&&&&&&&&&&&&&                            OOO$+@@########@ooo.                            &&&&&&&&&&&&&&&&&&&&               ",
"       ..... ....+@@#########@oo..                     &&&&& &&&&&&&&&&&&&&&&&&&&&                     ..... ....+@@#########@oo..                     &&&&& &&&&&&&&&&&&&&&&&&&&&              ",
"       .$.%.....@@@@@########@@oo.                     &&&&&&&&&&&&&&&&&&&&&&&&&&&                     .$.%.....@@@@@########@@oo.                     &&&&&&&&&&&&&&&&&&&&&&&&&&&              ",
"      ..$.%..O@@@@@@@@######@@@Oo.                    &&&&&&&&&&&&&&&&&&&&&&&&&&&&                    ..$.%..O@@@@@@@@######@@@Oo.                    &&&&&&&&&&&&&&&&&&&&&&&&&&&&              ",
"      .++.%%O@@@@@@@@@@####@@@@@..                    &&&&&&&&&&&&&&&&&&&&&&&&&&&&                    .++.%%O@@@@@@@@@@####@@@@@..                    &&&&&&&&&&&&&&&&&&&&&&&&&&&&              ",
"      ..+.%$$@@@###@@@@@@@@@@@@@..                    &&&&&&&&&&&&&&&&&&&&&&&&&&&&                    ..+.%$$@@@###@@@@@@@@@@@@@..                    &&&&&&&&&&&&&&&&&&&&&&&&&&&&              ",
"      ..+..$$$@####@@@@@@@@@@@@@O.                    &&&&&&&&&&&&&&&&&&&&&&&&&&&&                    ..+..$$$@####@@@@@@@@@@@@@O.                    &&&&&&&&&&&&&&&&&&&&&&&&&&&&              ",
"      ........O####@@@O@@@@@@@@@O..                   &&&&&&&&&&&&&&&&&&&&&&&&&&&&&                   ........O####@@@O@@@@@@@@@O..                   &&&&&&&&&&&&&&&&&&&&&&&&&&&&&             ",
"         ......XXXX@@@O@@@@@@@@@OX.                      &&&&&&&&&&&&&&&&&&&&&&&&&&                      ......XXXX@@@O@@@@@@@@@OX.                      &&&&&&&&&&&&&&&&&&&&&&&&&&             ",
"         ..XXXXXXXO@@@@@@@##@@@OXX..                     &&&&&&&&&&&&&&&&&&&&&&&&&&&                     ..XXXXXXXO@@@@@@@##@@@OXX..                     &&&&&&&&&&&&&&&&&&&&&&&&&&&            ",
"           .....XOOO@@@O@####@OXXXX..                      &&&&&&&&&&&&&&&&&&&&&&&&&&                      .....XOOO@@@O@####@OXXXX..                      &&&&&&&&&&&&&&&&&&&&&&&&&&           ",
"              ..OOOOO..O@####OXXXXXO.                         &&&&&&&&&&&&&&&&&&&&&&&                         ..OOOOO..O@####OXXXXXO.                         &&&&&&&&&&&&&&&&&&&&&&&           ",
"             ...$OOO...OO###@@XXXX.O.                        &&&&&&&&&&&&&&&&&&&&&&&&                        ...$OOO...OO###@@XXXX.O.                        &&&&&&&&&&&&&&&&&&&&&&&&           ",
"             ...XX$.....XO@@@@OXX. O..                       &&&&&&&&&&&&&&&&&&&&& &&&                       ...XX$.....XO@@@@OXX. O..                       &&&&&&&&&&&&&&&&&&&&& &&&          ",
"                       ....@@OOX.  OO...                               &&&&&&&&&&  &&&&&                               ....@@OOX.  OO...                               &&&&&&&&&&  &&&&&        ",
"                        ....XXXXX   ooo..                               &&&&&&&&&   &&&&&                               ....XXXXX   ooo..                               &&&&&&&&&   &&&&&       ",
"                       .......OOX.    ++.                              &&&&&&&&&&&    &&&                              .......OOX.    ++.                              &&&&&&&&&&&    &&&       ",
"                      .....  .OOX.                                    &&&&&  &&&&&                                    .....  .OOX.                                    &&&&&  &&&&&              ",
"                      ..... .$OO$.                                    &&&&& &&&&&&                                    ..... .$OO$.                                    &&&&& &&&&&&              "
};
