/* XPM */
static char *a9250d34cb6b4fa0dd49c9f4159117c53wwmGIaRq4ytX7sE[] = {
/* columns rows colors chars-per-pixel */
"64 64 30 1 ",
"  c None",
". c #24353A",
"X c #27393D",
"o c #293B3F",
"O c #2B3D42",
"+ c #2E4144",
"@ c #2F4348",
"# c #304247",
"$ c #32454A",
"% c #35494E",
"& c #374B50",
"* c #394E52",
"= c #3B5156",
"- c #3E5459",
"; c #40565B",
": c #425A5D",
"> c #455F62",
", c #53766D",
"< c #55796F",
"1 c #567B71",
"2 c #587E74",
"3 c #598176",
"4 c #5C8579",
"5 c #5E887C",
"6 c #608A7E",
"7 c #638D82",
"8 c #669185",
"9 c #689387",
"0 c #699689",
"q c #6B9A8D",
/* pixels */
"                                                                ",
"  -               8                                             ",
" -=$             881                                            ",
" %&$             14<                                            ",
"%*&%            3643              -               7             ",
"-=&%$$    o     6744<<    <      -;              8q             ",
"--$@%$    Oo   -871<3<    <<   5:-*&            7074            ",
"&%@+$$    $O  ->541<<<    4<  0q:-=&%     *    :99543     6    8",
"$O+@$+Oo @%X  -;,<,<<<4< <4<  96--&$&    &&$  =>793<3    45<  8q",
"&&OXOOO  ++o   =44<<<1<  <3,   ,>*-&OO  &=$@o;>:6796<<  4714,9q8",
"&$OOO+O $$$X   %33<<<3< <13<   1---$oOO *%&O$-=;6771<3< 543,3887",
"*O%OO@$O$$+O$==-431<<<1<11<<3575--&$$XOO$$*$%&&*69434,<3<<533444",
"&O$OO$O$O$@X+--:3<3<<,<<1<<<3996-*=;*OoXO%-%$&&*47694,<<<1644444",
"%%%O%$$$@+OO%-**,43<<33<1<<<4663:---&+OXo*-$&&&=79784,<<<6814444",
"*O$O@&&&%OO$==*=431<14443<<16864-=--+@OO$=&%$$$*67971<<,453<3113",
"OO$$O$&&%O+%*==%,<<<<35431<1666<&%*=OXO%&&$$$*&&3466<<14444,,441",
"$$%$OO%$$OO$#o#$1311<3433<<<<<<<&$*%XO$$$%%%--+$1154,<34<343883,",
"**%OOOOOoooOOo$=454<<<<,<<<<<<34&&&OO$$###%-;%.#<441<<,,,<3884,,",
"$%%OO$OOoO%$#%--131<<<<<,<34,386*&$oOOoO#%*==OX+153,1<<<34468<<<",
"$OOOO$$O#%&$$=--,<11<<<<334<3686*$%#ooO$%$%&$oo+1432,<<13<343,<<",
"*O$XOOOO%&#&;;=:4<1<<<<<44348885=%;=OoOO##$%ooo%45851,<<<,<3,<<3",
"&$$OOOOOOo+**==-334<<<<<<<,45864&=;%$ooXO$$*$oO%17941<<<<,353,<<",
"$$$XOXXOXO*;;*&*,<1<<<<<<<588543*=*#%OoO+$*;&+#%375,<<<<<,484<<3",
"$$$$XOXXO%===;=*,33<<<<<<4666883**#O+OO$$&;=%$$%171,<<<<<4063<<,",
"$*&Ooooo$&%*;=%%,54<<<<<3435854,%#Xoooo+%**$$$O$<3<<<<<<345<<<<<",
"$&$ooooooOo$&##$143<<<<<<1144<,,%#oooo+#$$@OoOO%<3<<<<<<<<<<<<<<",
"*%OOooooooooO%$*33,<<<<<<<<<,<33=#+oooo+++$+oo+%3<<<<<<<<<<<<<<<",
"%OOOooooooo##$&=31,<<<<<<<<<,343%@ooooooX+@oooO%<3<<<<<<<<<<<<,3",
"OO$ooooooooOo#&&,,<<<<<<<<<<,<43=$Oooooooooooo#=33,,<<<<<<<<<<33",
"oOOoooOooooo#&&#,<<<<<<<<<<<344,&++ooooooooo+$%=3<<<<<<<<<<<<<44",
"ooooooooooooO&##,1<<<<<<<<<<143,%Ooooooooo+$$$$&,<<<<<<<<<<<<<33",
"ooooooooooooooXO,<<<<<<<<<<<<<,,+oooooooo+#+$+#$,<<<<<<<<<<<<<<,",
"ooooooooooooooX+<<<<<<<<<<<<<<<,+Xoooooooooooo+#,,,,<<<<<<<<<<<<",
"ooooooooooooooX+<1<<<<<<<<<<<<<,+oooooooooooo+%%,3,3<<<<<<<<<<33",
"ooooooooooooooX+,<<1<<<<<<<<<<<,+Xoooooooo+oo+++,,,<,<<<<<<<<<<<",
"ooooooooooooooX+<<<<<<<<<<<<<<<,+XooooooooooooX+,3<<3<<<<<<<<<,<",
"ooooooooooooooo+,<<<<<<<<<<<<<<,+oooooooooooooX+,<<<<<<<<<<<<<<<",
"o+ooo+ooooooooo+,<<<<<<<<<<<<<3,+oooooOoooooooX+,<<<<<<<<<<<<<<<",
"ooooooooooooooX+<1<<<<<<<<<<<<<,+XoOooooooooooo+,<<<<<<<<<<<<<<<",
"ooooooooooooooX+,<<<<<<<<<<<<<<,+XooooooooooooX+,<<<<<<<<<<<<<<<",
"ooooooooooooooo+,<<<<<<<<<<<<<<,+Xooooooooooooo+,1<<<<<<<<<<<<<<",
"oooo+oooooooooo+<<<<<<<<<<<<<<<,+XooooOoooooooX+,<<<<<<<<<<<<<<<",
"ooooooooooooooo+,<<<<<<<<<<<<<3,+oooooooooooooX+,1<<<<<<<<<<<<<<",
"ooooooooooooooo+,<<<<<<<<<<<<<<,+oooooooooooooX+,1<<<<<<<<<<<<<<",
"ooooooooooooooX+<<<<<<<<<<<<<<<,+XooooooooooooX+,<<<<<<<<<3<<<<<",
"ooooooooooooooX+,11<<<<<<<<<<<<,+XooooooOoooooo+,1<<<<<<<<,<<<<<",
"ooooooooooooooo+,<<<<<<<<<<<<<<<+Xooooooooooooo+,1<<<<<<<<<<<<<<",
"oooo+oooooooooX+<<<<<<<<<<<<<<<,+Xooooooooooooo+,1<<<<<<<<<<<<<<",
"ooooooooooooooo+,<<<<<<<<<<<<<<,+oooooooooooooXO,1,11<<<<<<<<<<<",
"ooooooooooooooo+,<<<<<<<<<<<<<<,+oooooooooooooX+,1<<<<<<<<<<<<<<",
"o+ooooooooooooo+,<<<<<<<<<<<<<<,+oooooooooooooo+,1<<<<<<<<<<<<<<",
"ooooooooooooooo+,3<<<<<<<<<<<,3,ooooooooooooooX+,1<<<<<<<<<<1<<<",
"ooooooooooooooo+,<<<<<<<<<<<<<<,+oooooooOoooooo+,1<<<<<<<<<<<<<<",
"oooooooooooooooo,<<<<<<<<<<<<<<,+oooooooooooooX+,<<<<<<<<<<<<<<<",
"ooooooo+ooooooo+,<<<<<<<<<<<<<<,+oooooooooooooX+,<<<<<<<<<<<<<<<",
"ooooooooooooooo+<<<<<<<<<<<<<<<<+oooOoooooooooX+,1<<<<<<<<<<<<<<",
"ooooooooooooooo+,<,<<<<<<<<<<<,,+oooooooooooooX+,1<<<<<<<<<<<<<<",
"ooooooooooooooo+,3<<<<<<<<<<<<<,oXooooooooooooo+,1<<<<<<<<<<<<<<",
"ooooooo+ooooooo+,<<<<<<<<<<<<<3,+oooooooooo+ooo+,1<<<<,1<1<<<<1,",
"ooooooooooooooo+,<<<<<<<<<<<<<,,+oooooooooooooo+,<<<<<1<1,<<<<<1",
"ooooooooooooooo+,<<<<<<<<<<<,,3,+oooooooooooooX+,1<<<<<<<<<<<<<<",
"o+ooooooooooooX+,<<<<<<<<<<<,3,,+oooooooooooooX+,<<<<<<<<<<<<<<<",
"oooooooooooooooo,,<<<<<<3<<<,,3,+oooooooooooooX+,<<<<<<<<<<<<1<<",
"ooooooooooooooo+,3<<<<<,,<<<,3,,+oooooooooooooX+,1<<<<<<<<<<<<<<"
};
