/* XPM */
static char *ee066a172df844a48f6e8e51832c2111Z02A1XtwJZcoLudI[] = {
/* columns rows colors chars-per-pixel */
"64 64 191 2 ",
"   c None",
".  c #00020B",
"X  c #020C0A",
"o  c #0B0E0B",
"O  c #001904",
"+  c #0F1907",
"@  c #06110A",
"#  c #0F140B",
"$  c #001C08",
"%  c #151C05",
"&  c #1B1E07",
"*  c #10150B",
"=  c #151A0B",
"-  c #1B1E0A",
";  c #171D11",
":  c #1D1D11",
">  c #241F0F",
",  c #231F19",
"<  c #0E2C0C",
"1  c #1C2307",
"2  c #17220F",
"3  c #1D210B",
"4  c #1C2A0F",
"5  c #0B2510",
"6  c #152413",
"7  c #1D2614",
"8  c #152D12",
"9  c #1E2A14",
"0  c #173111",
"q  c #1E3212",
"w  c #1E3A11",
"e  c #21230C",
"r  c #29250E",
"t  c #262E0C",
"y  c #2B2F0D",
"u  c #2B3405",
"i  c #2E3904",
"p  c #2E3409",
"a  c #333D07",
"s  c #33360B",
"d  c #333B0A",
"f  c #242414",
"g  c #212C15",
"h  c #2C2C17",
"j  c #26221A",
"k  c #2B251C",
"l  c #262B19",
"z  c #2B2B1B",
"x  c #352D15",
"c  c #392F15",
"v  c #312E1C",
"b  c #213313",
"n  c #2D3414",
"m  c #253C13",
"M  c #293D15",
"N  c #263318",
"B  c #2A3319",
"V  c #2E3A1A",
"C  c #333217",
"Z  c #3B3415",
"A  c #353D14",
"S  c #3B3A15",
"D  c #36321B",
"F  c #3C331A",
"G  c #363A1A",
"H  c #393D1C",
"J  c #2E2720",
"K  c #342D22",
"L  c #373121",
"P  c #3C3325",
"I  c #3C3921",
"U  c #3E3428",
"Y  c #413516",
"T  c #433B16",
"R  c #44361A",
"E  c #453A1B",
"W  c #4B3C1C",
"Q  c #513F1D",
"!  c #423625",
"~  c #443A24",
"^  c #4A3C25",
"/  c #413528",
"(  c #453B29",
")  c #4B3D2C",
"_  c #523F30",
"`  c #364106",
"'  c #384407",
"]  c #3D4C06",
"[  c #36420B",
"{  c #3A440A",
"}  c #3D4B09",
"|  c #3E5101",
" . c #274112",
".. c #284212",
"X. c #284113",
"o. c #294513",
"O. c #2A4713",
"+. c #294612",
"@. c #294014",
"#. c #294413",
"$. c #2B4812",
"%. c #2C4B13",
"&. c #2D4C13",
"*. c #2D4D13",
"=. c #2E4F13",
"-. c #2E4E13",
";. c #2D4B14",
":. c #2D4C13",
">. c #364015",
",. c #3B4215",
"<. c #374A15",
"1. c #3B4817",
"2. c #324218",
"3. c #2F5013",
"4. c #2F5113",
"5. c #2E5113",
"6. c #305013",
"7. c #305213",
"8. c #315414",
"9. c #315413",
"0. c #355D13",
"q. c #366113",
"w. c #386314",
"e. c #404F07",
"r. c #414D0C",
"t. c #415205",
"y. c #475804",
"u. c #4B5D03",
"i. c #43510B",
"p. c #4C540F",
"a. c #4B590A",
"s. c #505D0A",
"d. c #434B15",
"f. c #41411B",
"g. c #4C411B",
"h. c #474B1B",
"j. c #51401D",
"k. c #54431E",
"l. c #59461F",
"z. c #5B481F",
"x. c #5C491F",
"c. c #5B481F",
"v. c #4A5513",
"b. c #535D13",
"n. c #4E6102",
"m. c #526403",
"M. c #556901",
"N. c #5A6D02",
"B. c #50600D",
"V. c #5E7201",
"C. c #667A00",
"Z. c #616E17",
"A. c #69731A",
"S. c #4B4524",
"D. c #4D4B23",
"F. c #4E422B",
"G. c #544323",
"H. c #554424",
"J. c #5A4720",
"K. c #594720",
"L. c #5B4821",
"P. c #5D4921",
"I. c #5D4A21",
"U. c #5C4920",
"Y. c #50422E",
"T. c #53442E",
"R. c #55452C",
"E. c #52432E",
"W. c #544E28",
"Q. c #565625",
"!. c #5B532D",
"~. c #534430",
"^. c #574730",
"/. c #554430",
"(. c #5C4B33",
"). c #5C4B34",
"_. c #604F36",
"`. c #604E36",
"'. c #614C39",
"]. c #625137",
"[. c #635138",
"{. c #655239",
"}. c #665339",
"|. c #645238",
" X c #6B573C",
".X c #69563B",
"XX c #6C583D",
"oX c #6C593D",
"OX c #626326",
"+X c #676D21",
"@X c #718400",
/* pixels */
"                                                                                                                                ",
"                                                                                                                                ",
"                                                                                                        9                       ",
"                                                                                                      9 g                       ",
"                                                                                                      9 g 7                     ",
"                                                                                                      7 7 9 7                   ",
"                                                                                                      m N m 7                   ",
"                                                                                                    o... .m 7                   ",
"                                                                                                    m m  .b                     ",
"                                        9                                                           b b g 7                     ",
"                                      g g                                                         9 b b b 9 g                   ",
"                                      b m                                                         b b b m q 9 9                 ",
"                                    9 b b                                                         m .. . .9 l 9                 ",
"                                    9 9 g f                                                       X. . .m 9 9                   ",
"                                    7 7 7 7                                                   b  . . .m b q                     ",
"                                  9 m N m g                                     9 9 9 9       N m  . .m m m l 7                 ",
"                                  m O. . .b 9                                 q N b N 7       g b b  ...o. .g 9                 ",
"                                    m  .m b b                                 b q b b 9       7 g 7 m m m b 9                   ",
"                                    b m b b b                                 9 9 q g         9 9 9 q b b g     9               ",
"                                    9 b b b b                               b b b b 7         g g b m m m b 9 g 7               ",
"                                  b m b b 9 9                               b b b 9 l       7 9 q  ..... .b 9 9 9               ",
"                              b b m  . .m l 9 9                             g N N 9 z v     9 g m  .o.m m g 9 q b               ",
"                              b X.o.o. .m l b 9                               O $     v   b m M %.%.-.m m b m b b               ",
"                              o.-.-.%.b 9 l B b                                       K   m ..*.7.6.4.o.m  .o.b g               ",
"                              3.4.4.-.b q b N b b                         |. XXX}./ U v   m o.o.%.$...m m  .m b 7 g             ",
"                            3.8.8.4.%.b 9 b 9 b                 E       |. X|.}.) U P l N m -.-.3.o.m 9 9 9 9 b b b 9           ",
"                              7.-.m g 9 9 g b 9               R       _.XX|.}.).K K f 1 g o.7.6.3.$.m 7 9 9 b b b b 9           ",
"                                  7 7 m o...o.m b 9         R R       ^.).|.}.( , J - e v X.%.X. .m b 9 b 9 9 b q b 9           ",
"                              7 7 7 b -.6.8.*.m g 9         E R     T.^.F.T.) K k j 3 1 z    .9 9 q b b b b b 9 9 9 9           ",
"                              9 l b m %.*.*.o.m g 7           E     T./.R.E.W ~ Z 1 1 = h v     b m m b g b q 9 g 9             ",
"                                9 %.o.o.$... .m 9 9             Y E.H.H.I.x.K.Y W g.T W F L      . . .b 7 b b b m               ",
"                                X.8.6.8.O.N m 9 9 9 7           z.z.c.x.x.k.W j.I.I.I.I.L.D b m .. . .b 7 q b b b               ",
"                              9 m %.-.-.V g f g 9 b b         P.z.L.I.z.W E z.z.K.k.k.z.k.h w $.+.o.m m b m b 9 9 9 9           ",
"                              m b m m 9 k g 9 B q q b N     k.I.z.z.j.W Q k.E Y R Q k.z.k.>.5.<.3. .q m  . .g 7 9 g g           ",
"                          b m X. .M N 9 h g 7 l B b N b n c.I.K.K.Q Q K.P.P.K.Q E Q k.K.W o.*.7.8.X.q m .. .g 7 9 9 7           ",
"                          b o. .M V m b m b 9 b N B b 0 g.I.K.I.K.x.I.z.z.P.P.K.W D c D w M ..o.3.-.$.*.m b 9 9 7 g             ",
"                          m O.A 2. . . .X.m b b b g g g.P.K.P.Q k.K.I.x.K.W F D v z l 7 ..o. . .*.3.7.*.b 9 g 7 9 7 9 9 9       ",
"                        ..-.1.<.4. .X.m m b q b b 8 g.x.K.P.W E K.I.z.^ v 7 7 7 l D F g 9 b m m o.o. .b b b b 9 7 9 9 l 9       ",
"                         .O.$.5.O.m m b l 9 9 b 9 C Q Q Q R R z.x.k.L l 7 9 9 4 f h E Y 7 7 D m m b b b b b g 7 9 9 9 7         ",
"                             .o.m b q b 9 9 9 6 C z.z.k.Y F W z.^ F F v 7 - * * - % c E C g S q b q b g q 9 9 9 7 g 9           ",
"                            *.4.b b q q 9 7 7 h z.z.c.z.E R Q S.F W c - * # # # * - - S X.m ..m b b 9 6 g f 9 9 g g g   7       ",
"                        9.9.9.9.o.*.m l z g 4 k.k.z.K.E R Y F Y E c * o * # * * * 1 * w  . . .b 9 4 7 D z g b b b 9 7 g 7       ",
"                      8.w.w.w.9.7.8.m Z D 7 S k.j.x.E C C b 8 F x X * * * * * # * - o 4 m A n & 1 = g.L.F 9 b b b 9 9 7 g       ",
"                    *.0.q.q.q.3.o.m 9 D F x k.W x.E n b q b b 6 o * * * * * * # - * * * ; F Y e % E I.I.F 6 g 9 7 9 7 9 7       ",
"                      w.q.q.0. .9 7 6 Z Y S.z.k.E 6 q b b b b 7 6 * # * * * * # * - * * * : F r Z Q k.k.x v l 7 7 g g 7 g 7     ",
"                    q.q.w.3.$.b 9 b q Z R L.P.K.g 9 g b b 9 b b 9 # * # * * * * * - * * # * l E k.Q z.W R R 7 9 7 7 7 7 7 9     ",
"                    q.q.0.o.m m b b 0 D k.P.z.K.C q b b b 9 b b q # # * * * * # * * * * = 6 x I.z.K.z.k.W v 9 7 g 7 g 7 9 7 g   ",
"                          6 < q g 7 9 Q I.K.z.K.m q b b 9 b b 4 2 # * * # * * * * * * * = 7 k.x.K.K.z.P.F l z 9 7 7 7 9 g g 9   ",
"                          ( ^.G 5 l E I.x.k.K.W z 9 g b 9 b q # # # * * * * * * * * * & X x I.z.j.K.I.E l K 9 9 7 9 7 7 7 9     ",
"                        }.}..X).E K.I.x.z.Q H.F R 9 9 9 7 6 * * * * * * * * * * * # * = @ R z.Q z.I.k.l h h 7 9 7 9 g           ",
"                      |.oX_._.|.H.K.I.H.W P.R R R l 7 4 * # # * * * * # * * * * * * * X x k.R Q I.I.Z 6 Z F 9 9 7 g             ",
"                    }. X|.|.|.|.U E z.F k.j.D F E v 2 - ; # * * * * * * * * * * * # * X W k.R I.I.E j g Z W F 7 g g             ",
"                  |..X|.|.|.|.)./ / D k.K.Y W F R x 2 - - # * * * * * * * * # * * * * > P.E R Q g.z >.a s f.R                   ",
"                  oX|.|.|.|..X/.K U P I.E R E D Y Z 2 - = = * * # * # * * * * * - - + x Q E E p.n.a.} t.u.s.R                   ",
"                ).'.).|.{._.|.( K / K Y E R Y z D F 7 - * = * * * # * * * * - - & & x Y R W F s.M.n.n.N.C.s.c   ~./.            ",
"              W._.!.OX)._..X_.U / K , k Z R Z h h D 7 7 * * * * * * * * * o - - % ~ _ s S K.D H >.| N.M.y.` u ^ ^.)             ",
"              Z.V.@XA._ ~.}.Y.K K j f j e { ] ` m z f 2 7 * # # * * * * # * - + x /.F.u W k.F k I } y.} ` ` f././.K j           ",
"            Q.V.V.C.+XF.~.F.L j k > - - 1 n.N.y.[ k L : ; X # * * * = = = 1 * - _ /.U t l.E D D F.^.} | } t.F./.) k k           ",
"          _ ^.a.m.V.Y.d.h.d.G j k e - e - A v.d.A P U v i t ` 1 o # . > Y x % ~ T.T.J Z c.D D R F.~.S.} | r.F.R.U j k -         ",
"          D.b.V.V.M.v.n.t.} k k k e - - % , _ _ ! P P B.M.M.t.e - a t y.p.R Z E.T.) k Q g.h l ! ~.~.F.S.` E R.T.K j f e         ",
"        t.y.M.N.N.N.N.m.i.D j k k - & - % ^ /.T.T.P L n.N.M.t.` t.M.M.V.m.} R W ^ ~ R E p d G 1.S.T.T./ r a S.F.v , e e -       ",
"      } } e.' ] y.m.u.d.U K k k - 1 1 & v T.T././ L v z >.' t.t.y.N.V.n.y.] E R Y R Y - ` t.e.| h.T.F.K t e.} i.G : e - 1       ",
"    t.t.a s a { ` } { I U P k f & - - % K ( / ! k - p A { } ] } ] t.t.a u s T.~ ( ! j > d t.t.| S./.) , 1 ' | ] s - > - 3 1     ",
"    e.` p a e.a i p p L U U K 7 - - & f P P U v - % p t.t.t.] d d a p p i ~ ~.! Y.F.J k k ` ' i ~ ^./ - - e ` a h - 1 - - -     "
};
